<svg width="74" height="74" viewBox="0 0 74 74" fill="none" xmlns="http://www.w3.org/2000/svg">
<g filter="url(#filter0_d_1876_524)">
<rect x="12" y="12" width="50" height="50" rx="25" fill="#1A1628"/>
<rect x="12.5" y="12.5" width="49" height="49" rx="24.5" stroke="#EC7200"/>
<path d="M46.486 33.5728L43.9424 33.3088C43.7985 32.8289 43.6065 32.373 43.3905 31.941L44.9983 29.9253C45.0943 29.8054 45.0703 29.6374 44.9743 29.5414L42.9346 27.5497C42.8386 27.4537 42.6706 27.4537 42.5507 27.5257L40.559 29.1335C40.127 28.9175 39.6711 28.7255 39.2152 28.5816L38.9272 26.014C38.9032 25.87 38.7832 25.75 38.6393 25.75H35.7597C35.6157 25.75 35.4958 25.87 35.4718 26.014L35.2078 28.5816C34.7279 28.7255 34.272 28.9175 33.84 29.1335L31.8483 27.5257C31.7284 27.4297 31.5604 27.4537 31.4644 27.5497L29.4247 29.5894C29.3287 29.6854 29.3047 29.8534 29.4007 29.9733L31.0085 31.989C30.7925 32.421 30.6005 32.8769 30.4566 33.3568L27.889 33.6208C27.745 33.6448 27.625 33.7647 27.625 33.9087V36.7883C27.625 36.9322 27.721 37.0522 27.889 37.0762L30.4566 37.3402C30.6005 37.8201 30.7925 38.276 31.0085 38.708L29.4007 40.6997C29.3047 40.8196 29.3047 40.9876 29.4247 41.0836L31.3684 43.0273L31.6804 42.5234L30.0006 40.8196L31.5844 38.8759C31.6564 38.78 31.6564 38.66 31.6084 38.564C31.3204 38.0841 31.1045 37.5561 30.9605 36.9802C30.9365 36.8603 30.8405 36.7883 30.7205 36.7643L28.2249 36.5003V34.1247L30.7205 33.8607C30.8405 33.8607 30.9365 33.7647 30.9605 33.6448C31.1045 33.0689 31.3204 32.5409 31.6084 32.061C31.6564 31.965 31.6564 31.845 31.5844 31.7491L30.0006 29.8054L31.6804 28.1256L33.6241 29.6854C33.72 29.7574 33.84 29.7814 33.936 29.7094C34.4399 29.4214 34.9678 29.2055 35.5198 29.0615C35.6397 29.0375 35.7117 28.9415 35.7357 28.8215L35.9997 26.3259H38.3753L38.6393 28.8215C38.6393 28.9415 38.7353 29.0375 38.8552 29.0615C39.4072 29.2055 39.9351 29.4454 40.439 29.7094C40.535 29.7574 40.655 29.7574 40.7509 29.6854L42.6946 28.1256L44.3744 29.8054L42.7906 31.7491C42.7186 31.845 42.6946 31.965 42.7666 32.061C43.0546 32.5409 43.2705 33.0689 43.4145 33.6448C43.4385 33.7647 43.5345 33.8367 43.6545 33.8607L46.1501 34.1247V36.5003L43.6785 36.7643C43.5585 36.7883 43.4625 36.8603 43.4385 36.9802C43.2945 37.5561 43.0546 38.0841 42.7906 38.564C42.7426 38.66 42.7426 38.8039 42.8146 38.8759L44.3984 40.8196L42.7186 42.4754L43.0066 42.9793L44.9503 41.0356C45.0463 40.9396 45.0703 40.7716 44.9743 40.6517L43.3665 38.66C43.5825 38.228 43.7745 37.7721 43.9184 37.2922L46.486 37.0282C46.63 37.0282 46.75 36.8843 46.75 36.7403V33.8607C46.75 33.7167 46.63 33.5968 46.486 33.5728Z" fill="#EC7200" stroke="#EC7200" stroke-width="0.5"/>
<path d="M39.983 37.7724C40.5829 37.1245 40.9429 36.2366 40.9429 35.3008C40.9429 33.2371 39.2631 31.5574 37.1995 31.5574C35.1358 31.5574 33.4561 33.2371 33.4561 35.3008C33.4561 36.2606 33.816 37.1245 34.4159 37.7724L34.7279 37.2445C34.2959 36.7166 34.032 36.0207 34.032 35.2768C34.032 33.5251 35.4477 32.1093 37.1995 32.1093C38.9512 32.1093 40.367 33.5251 40.367 35.2768C40.367 36.0207 40.103 36.6926 39.6711 37.2445L39.983 37.7724Z" fill="#EC7200" stroke="#EC7200" stroke-width="0.5"/>
<path d="M38.735 36.8121C38.3991 36.2601 37.8232 35.9242 37.1753 35.9242C36.5274 35.9242 35.9515 36.2601 35.6155 36.8121L30.3604 45.8346C30.0244 46.3866 30.0244 47.0584 30.3604 47.6344C30.6963 48.2103 31.2722 48.5462 31.9201 48.5462H42.5025C43.1504 48.5462 43.7263 48.2103 44.0622 47.6344C44.3742 47.0584 44.3742 46.3866 44.0622 45.8346L38.735 36.8121ZM43.5583 47.3704C43.3423 47.7543 42.9344 47.9943 42.5025 47.9943H31.8961C31.4402 47.9943 31.0562 47.7543 30.8403 47.3704C30.6243 46.9865 30.6243 46.5305 30.8403 46.1466L36.1435 37.1C36.3594 36.7161 36.7674 36.5001 37.1993 36.5001C37.6312 36.5001 38.0392 36.7161 38.2551 37.1L43.5583 46.1466C43.7743 46.5065 43.7743 46.9865 43.5583 47.3704Z" fill="#EC7200" stroke="#EC7200" stroke-width="0.5"/>
<path d="M37.1991 44.0832C37.823 44.0832 38.3269 43.5793 38.3269 42.9554V39.4519C38.3269 38.828 37.823 38.3241 37.1991 38.3241C36.5752 38.3241 36.0713 38.828 36.0713 39.4519V42.9314C36.0713 43.5793 36.5752 44.0832 37.1991 44.0832ZM36.6232 39.4519C36.6232 39.14 36.8872 38.876 37.1991 38.876C37.5111 38.876 37.775 39.14 37.775 39.4519V42.9314C37.775 43.2433 37.5111 43.5073 37.1991 43.5073C36.8872 43.5073 36.6232 43.2433 36.6232 42.9314V39.4519Z" fill="#EC7200" stroke="#EC7200" stroke-width="0.5"/>
<path d="M37.199 44.6105C36.5031 44.6105 35.9512 45.1624 35.9512 45.8583C35.9512 46.5542 36.5031 47.1061 37.199 47.1061C37.8949 47.1061 38.4468 46.5542 38.4468 45.8583C38.4468 45.1624 37.8949 44.6105 37.199 44.6105ZM37.199 46.5542C36.815 46.5542 36.5031 46.2422 36.5031 45.8583C36.5031 45.4743 36.815 45.1624 37.199 45.1624C37.5829 45.1624 37.8949 45.4743 37.8949 45.8583C37.8949 46.2422 37.5829 46.5542 37.199 46.5542Z" fill="#EC7200" stroke="#EC7200" stroke-width="0.5"/>
</g>
<defs>
<filter id="filter0_d_1876_524" x="0" y="0" width="74" height="74" filterUnits="userSpaceOnUse" color-interpolation-filters="sRGB">
<feFlood flood-opacity="0" result="BackgroundImageFix"/>
<feColorMatrix in="SourceAlpha" type="matrix" values="0 0 0 0 0 0 0 0 0 0 0 0 0 0 0 0 0 0 127 0" result="hardAlpha"/>
<feOffset/>
<feGaussianBlur stdDeviation="6"/>
<feComposite in2="hardAlpha" operator="out"/>
<feColorMatrix type="matrix" values="0 0 0 0 0.92549 0 0 0 0 0.447059 0 0 0 0 0 0 0 0 1 0"/>
<feBlend mode="normal" in2="BackgroundImageFix" result="effect1_dropShadow_1876_524"/>
<feBlend mode="normal" in="SourceGraphic" in2="effect1_dropShadow_1876_524" result="shape"/>
</filter>
</defs>
</svg>
