<svg width="161" height="40" viewBox="0 0 161 40" fill="none" xmlns="http://www.w3.org/2000/svg">
<circle cx="20" cy="20" r="20" fill="#47D7AC"/>
<path d="M49.66 28V13.9H58.7V15.56H51.74V20.08H58.24V21.74H51.74V28H49.66ZM60.8277 28V17.92H62.8477V28H60.8277ZM60.6677 15.82V13.72H63.0077V15.82H60.6677ZM65.8081 28V20.34C65.8081 19.9533 65.7881 19.56 65.7481 19.16C65.7215 18.7467 65.6881 18.3333 65.6481 17.92H67.6081L67.7881 20.04H67.5481C67.8548 19.2933 68.3281 18.7267 68.9681 18.34C69.6081 17.94 70.3481 17.74 71.1881 17.74C72.3748 17.74 73.2681 18.0667 73.8681 18.72C74.4815 19.3733 74.7881 20.3867 74.7881 21.76V28H72.7681V21.88C72.7681 20.9867 72.5881 20.3467 72.2281 19.96C71.8815 19.56 71.3481 19.36 70.6281 19.36C69.7748 19.36 69.0948 19.6267 68.5881 20.16C68.0815 20.68 67.8281 21.3867 67.8281 22.28V28H65.8081ZM82.0836 28.18C81.0703 28.18 80.1836 27.9733 79.4236 27.56C78.6769 27.1333 78.0969 26.5267 77.6836 25.74C77.2836 24.94 77.0836 23.9933 77.0836 22.9C77.0836 21.82 77.2903 20.8933 77.7036 20.12C78.1169 19.3467 78.6969 18.76 79.4436 18.36C80.1903 17.9467 81.0703 17.74 82.0836 17.74C82.7369 17.74 83.3703 17.8533 83.9836 18.08C84.5969 18.2933 85.1036 18.6 85.5036 19L84.8436 20.42C84.4703 20.06 84.0503 19.7933 83.5836 19.62C83.1169 19.4333 82.6636 19.34 82.2236 19.34C81.2636 19.34 80.5103 19.6467 79.9636 20.26C79.4169 20.8733 79.1436 21.76 79.1436 22.92C79.1436 24.0933 79.4169 24.9933 79.9636 25.62C80.5103 26.2467 81.2636 26.56 82.2236 26.56C82.6503 26.56 83.0969 26.48 83.5636 26.32C84.0303 26.1467 84.4569 25.8733 84.8436 25.5L85.5036 26.92C85.0903 27.32 84.5703 27.6333 83.9436 27.86C83.3303 28.0733 82.7103 28.18 82.0836 28.18ZM87.6441 28V13.28H89.6641V20.06H89.3841C89.6774 19.3 90.1507 18.7267 90.8041 18.34C91.4574 17.94 92.2107 17.74 93.0641 17.74C94.2641 17.74 95.1574 18.0733 95.7441 18.74C96.3307 19.3933 96.6241 20.3867 96.6241 21.72V28H94.6041V21.84C94.6041 20.9733 94.4307 20.3467 94.0841 19.96C93.7507 19.56 93.2174 19.36 92.4841 19.36C91.6307 19.36 90.9441 19.6267 90.4241 20.16C89.9174 20.68 89.6641 21.3733 89.6641 22.24V28H87.6441Z" fill="white"/>
<path d="M16.12 17.8C16.12 17.368 16.216 16.92 16.408 16.456C16.6 15.976 16.856 15.536 17.176 15.136C17.496 14.72 17.84 14.408 18.208 14.2L25.48 10V12.4L18.208 16.6V25C18.208 24.568 18.304 24.12 18.496 23.656C18.688 23.176 18.936 22.736 19.24 22.336C19.56 21.92 19.904 21.608 20.272 21.4L25.48 18.4V20.8L18.208 25V31L16.12 32.2V17.8ZM25.48 18.4L20.272 21.4C19.904 21.608 19.56 21.92 19.24 22.336C18.936 22.736 18.688 23.176 18.496 23.656C18.304 24.12 18.208 24.568 18.208 25L16.12 23.8C16.12 23.368 16.216 22.92 16.408 22.456C16.6 21.976 16.856 21.536 17.176 21.136C17.496 20.72 17.84 20.408 18.208 20.2L23.392 17.2L25.48 18.4ZM25.48 10L18.208 14.2C17.84 14.408 17.496 14.72 17.176 15.136C16.856 15.536 16.6 15.976 16.408 16.456C16.216 16.92 16.12 17.368 16.12 17.8V32.2L14.032 31V16.6C14.032 16.168 14.128 15.72 14.32 15.256C14.512 14.776 14.768 14.336 15.088 13.936C15.408 13.52 15.752 13.208 16.12 13L23.392 8.8L25.48 10Z" fill="#205463"/>
<path d="M106.49 23.75C106.67 23.37 106.947 23.06 107.32 22.82C107.7 22.58 108.147 22.46 108.66 22.46C109.16 22.46 109.607 22.5767 110 22.81C110.393 23.0367 110.7 23.3633 110.92 23.79C111.147 24.21 111.26 24.7 111.26 25.26C111.26 25.82 111.147 26.3133 110.92 26.74C110.7 27.1667 110.39 27.4967 109.99 27.73C109.597 27.9633 109.153 28.08 108.66 28.08C108.14 28.08 107.69 27.9633 107.31 27.73C106.937 27.49 106.663 27.18 106.49 26.8V28H105.8V20.6H106.49V23.75ZM110.55 25.26C110.55 24.8067 110.46 24.4167 110.28 24.09C110.107 23.7567 109.867 23.5033 109.56 23.33C109.253 23.1567 108.907 23.07 108.52 23.07C108.147 23.07 107.803 23.16 107.49 23.34C107.183 23.52 106.94 23.7767 106.76 24.11C106.58 24.4433 106.49 24.83 106.49 25.27C106.49 25.71 106.58 26.0967 106.76 26.43C106.94 26.7633 107.183 27.02 107.49 27.2C107.803 27.38 108.147 27.47 108.52 27.47C108.907 27.47 109.253 27.3833 109.56 27.21C109.867 27.03 110.107 26.7733 110.28 26.44C110.46 26.1 110.55 25.7067 110.55 25.26ZM117.048 22.54L113.808 30.57H113.078L114.138 27.97L111.898 22.54H112.668L114.528 27.2L116.328 22.54H117.048ZM123.301 22.44C123.955 22.44 124.488 22.6433 124.901 23.05C125.315 23.45 125.521 24.0333 125.521 24.8V28H124.831V24.88C124.831 24.2867 124.681 23.8333 124.381 23.52C124.088 23.2067 123.685 23.05 123.171 23.05C122.645 23.05 122.225 23.2167 121.911 23.55C121.598 23.8833 121.441 24.3733 121.441 25.02V28H120.741V22.54H121.441V23.47C121.615 23.1367 121.865 22.8833 122.191 22.71C122.518 22.53 122.888 22.44 123.301 22.44ZM126.75 25.26C126.75 24.7 126.86 24.21 127.08 23.79C127.306 23.3633 127.616 23.0367 128.01 22.81C128.41 22.5767 128.86 22.46 129.36 22.46C129.88 22.46 130.326 22.58 130.7 22.82C131.08 23.06 131.353 23.3667 131.52 23.74V22.54H132.22V28H131.52V26.79C131.346 27.1633 131.07 27.4733 130.69 27.72C130.316 27.96 129.87 28.08 129.35 28.08C128.856 28.08 128.41 27.9633 128.01 27.73C127.616 27.4967 127.306 27.1667 127.08 26.74C126.86 26.3133 126.75 25.82 126.75 25.26ZM131.52 25.27C131.52 24.83 131.43 24.4433 131.25 24.11C131.07 23.7767 130.823 23.52 130.51 23.34C130.203 23.16 129.863 23.07 129.49 23.07C129.103 23.07 128.756 23.1567 128.45 23.33C128.143 23.5033 127.9 23.7567 127.72 24.09C127.546 24.4167 127.46 24.8067 127.46 25.26C127.46 25.7067 127.546 26.1 127.72 26.44C127.9 26.7733 128.143 27.03 128.45 27.21C128.756 27.3833 129.103 27.47 129.49 27.47C129.863 27.47 130.203 27.38 130.51 27.2C130.823 27.02 131.07 26.7633 131.25 26.43C131.43 26.0967 131.52 25.71 131.52 25.27ZM136.108 22.46C136.621 22.46 137.068 22.58 137.448 22.82C137.828 23.06 138.101 23.3633 138.268 23.73V22.54H138.968V28.14C138.968 28.64 138.858 29.0833 138.638 29.47C138.424 29.8567 138.124 30.1533 137.738 30.36C137.351 30.5733 136.911 30.68 136.418 30.68C135.718 30.68 135.134 30.5133 134.668 30.18C134.208 29.8467 133.921 29.3933 133.808 28.82H134.498C134.618 29.2 134.844 29.5033 135.178 29.73C135.518 29.9567 135.931 30.07 136.418 30.07C136.771 30.07 137.088 29.9933 137.368 29.84C137.648 29.6933 137.868 29.4733 138.028 29.18C138.188 28.8867 138.268 28.54 138.268 28.14V26.79C138.094 27.1633 137.818 27.4733 137.438 27.72C137.064 27.96 136.621 28.08 136.108 28.08C135.608 28.08 135.158 27.9633 134.758 27.73C134.364 27.4967 134.054 27.1667 133.828 26.74C133.608 26.3133 133.498 25.82 133.498 25.26C133.498 24.7 133.608 24.21 133.828 23.79C134.054 23.3633 134.364 23.0367 134.758 22.81C135.158 22.5767 135.608 22.46 136.108 22.46ZM138.268 25.27C138.268 24.83 138.178 24.4433 137.998 24.11C137.818 23.7767 137.571 23.52 137.258 23.34C136.951 23.16 136.611 23.07 136.238 23.07C135.851 23.07 135.504 23.1567 135.198 23.33C134.891 23.5033 134.648 23.7567 134.468 24.09C134.294 24.4167 134.208 24.8067 134.208 25.26C134.208 25.7067 134.294 26.1 134.468 26.44C134.648 26.7733 134.891 27.03 135.198 27.21C135.504 27.3833 135.851 27.47 136.238 27.47C136.611 27.47 136.951 27.38 137.258 27.2C137.571 27.02 137.818 26.7633 137.998 26.43C138.178 26.0967 138.268 25.71 138.268 25.27ZM140.246 25.26C140.246 24.7 140.356 24.21 140.576 23.79C140.802 23.3633 141.112 23.0367 141.506 22.81C141.906 22.5767 142.356 22.46 142.856 22.46C143.376 22.46 143.822 22.58 144.196 22.82C144.576 23.06 144.849 23.3667 145.016 23.74V22.54H145.716V28H145.016V26.79C144.842 27.1633 144.566 27.4733 144.186 27.72C143.812 27.96 143.366 28.08 142.846 28.08C142.352 28.08 141.906 27.9633 141.506 27.73C141.112 27.4967 140.802 27.1667 140.576 26.74C140.356 26.3133 140.246 25.82 140.246 25.26ZM145.016 25.27C145.016 24.83 144.926 24.4433 144.746 24.11C144.566 23.7767 144.319 23.52 144.006 23.34C143.699 23.16 143.359 23.07 142.986 23.07C142.599 23.07 142.252 23.1567 141.946 23.33C141.639 23.5033 141.396 23.7567 141.216 24.09C141.042 24.4167 140.956 24.8067 140.956 25.26C140.956 25.7067 141.042 26.1 141.216 26.44C141.396 26.7733 141.639 27.03 141.946 27.21C142.252 27.3833 142.599 27.47 142.986 27.47C143.359 27.47 143.699 27.38 144.006 27.2C144.319 27.02 144.566 26.7633 144.746 26.43C144.926 26.0967 145.016 25.71 145.016 25.27ZM148.014 23.51C148.167 23.17 148.4 22.9067 148.714 22.72C149.034 22.5333 149.424 22.44 149.884 22.44V23.17H149.694C149.187 23.17 148.78 23.3067 148.474 23.58C148.167 23.8533 148.014 24.31 148.014 24.95V28H147.314V22.54H148.014V23.51ZM151.637 23.51C151.79 23.17 152.023 22.9067 152.337 22.72C152.657 22.5333 153.047 22.44 153.507 22.44V23.17H153.317C152.81 23.17 152.403 23.3067 152.097 23.58C151.79 23.8533 151.637 24.31 151.637 24.95V28H150.937V22.54H151.637V23.51ZM156.95 28.08C156.436 28.08 155.973 27.9667 155.56 27.74C155.153 27.5067 154.83 27.18 154.59 26.76C154.356 26.3333 154.24 25.8367 154.24 25.27C154.24 24.7033 154.36 24.21 154.6 23.79C154.84 23.3633 155.166 23.0367 155.58 22.81C155.993 22.5767 156.456 22.46 156.97 22.46C157.483 22.46 157.946 22.5767 158.36 22.81C158.78 23.0367 159.106 23.3633 159.34 23.79C159.58 24.21 159.7 24.7033 159.7 25.27C159.7 25.83 159.58 26.3233 159.34 26.75C159.1 27.1767 158.77 27.5067 158.35 27.74C157.93 27.9667 157.463 28.08 156.95 28.08ZM156.95 27.47C157.31 27.47 157.643 27.39 157.95 27.23C158.256 27.0633 158.503 26.8167 158.69 26.49C158.883 26.1567 158.98 25.75 158.98 25.27C158.98 24.79 158.886 24.3867 158.7 24.06C158.513 23.7267 158.266 23.48 157.96 23.32C157.653 23.1533 157.32 23.07 156.96 23.07C156.6 23.07 156.266 23.1533 155.96 23.32C155.653 23.48 155.406 23.7267 155.22 24.06C155.04 24.3867 154.95 24.79 154.95 25.27C154.95 25.75 155.04 26.1567 155.22 26.49C155.406 26.8167 155.65 27.0633 155.95 27.23C156.256 27.39 156.59 27.47 156.95 27.47Z" fill="white"/>
</svg>
