<svg width="74" height="74" viewBox="0 0 74 74" fill="none" xmlns="http://www.w3.org/2000/svg">
<g filter="url(#filter0_d_1876_492)">
<rect x="12" y="12" width="50" height="50" rx="25" fill="#1A1628"/>
<rect x="12.5" y="12.5" width="49" height="49" rx="24.5" stroke="#EC7200"/>
<path d="M41.0107 30.6582C40.7831 30.2647 40.3915 30.039 39.9353 30.039C39.4792 30.039 39.0904 30.2647 38.8629 30.6582L36.5643 34.6362C36.3367 35.0298 36.3367 35.483 36.5643 35.8747C36.7899 36.2682 37.1806 36.4939 37.6367 36.4939H42.2367C42.6928 36.4939 43.0835 36.2682 43.3092 35.8747C43.5368 35.4812 43.5368 35.0279 43.3092 34.6334L41.0106 30.6554L41.0107 30.6582ZM42.7593 35.558C42.6474 35.7514 42.4625 35.8605 42.2368 35.8605H37.6368C37.4111 35.8605 37.2253 35.7543 37.1143 35.558C37.0005 35.3626 37.0005 35.1493 37.1143 34.9539L39.4129 30.9759C39.5267 30.7806 39.7126 30.6734 39.9354 30.6734C40.1582 30.6734 40.347 30.7796 40.4608 30.9759L42.7594 34.9539C42.8732 35.1493 42.8731 35.3626 42.7593 35.558ZM46.2498 32.6697L44.9469 32.1671C44.8549 31.875 44.7364 31.5896 44.5923 31.3146L45.1574 30.0392C45.2096 29.9207 45.1849 29.7794 45.0901 29.6846L43.9949 28.5922C43.9029 28.5002 43.7616 28.4736 43.6431 28.5248L42.3648 29.09C42.0927 28.9459 41.8072 28.8302 41.5105 28.7354L41.005 27.4353C40.9576 27.3139 40.8391 27.2324 40.7082 27.2324H39.1597C39.0289 27.2324 38.9122 27.3139 38.8629 27.4353L38.3575 28.7354C38.0626 28.8273 37.7753 28.9459 37.5031 29.09L36.2248 28.5248C36.1063 28.4727 35.965 28.4973 35.873 28.5922L34.7778 29.6846C34.6839 29.7766 34.6593 29.9178 34.7105 30.0392L35.2756 31.3146C35.1315 31.5896 35.013 31.8741 34.921 32.1671L33.6181 32.6697C33.4967 32.7171 33.4152 32.8356 33.4152 32.9665V34.5122C33.4152 34.643 33.4967 34.7597 33.6181 34.809L34.921 35.3144C35.013 35.6065 35.1315 35.8919 35.2756 36.1669L34.7105 37.4423C34.6583 37.5608 34.683 37.7021 34.7778 37.7969L35.873 38.8922C35.965 38.9842 36.1063 39.0107 36.2248 38.9595L37.5031 38.3943C37.7781 38.5385 38.0626 38.657 38.3556 38.749L38.861 40.0491C38.9084 40.1704 39.0269 40.252 39.1578 40.252H40.7063C40.8372 40.252 40.9538 40.1704 41.0031 40.0491L41.5086 38.749C41.8006 38.657 42.0879 38.5385 42.361 38.3943L43.6393 38.9595C43.7578 39.0117 43.8991 38.987 43.9911 38.8922L45.0863 37.7969C45.1802 37.705 45.2049 37.5637 45.1537 37.4423L44.5885 36.1669C44.7326 35.8919 44.8512 35.6074 44.9431 35.3144L46.2461 34.809C46.3674 34.7616 46.449 34.643 46.449 34.5122V32.9665C46.449 32.8356 46.3674 32.7162 46.2461 32.6697H46.2498ZM45.8184 34.295L44.5724 34.7777C44.4785 34.8147 44.4093 34.8915 44.3818 34.9882C44.2851 35.3353 44.1438 35.6747 43.9636 35.9962C43.9143 36.0825 43.9095 36.1896 43.9513 36.2807L44.4908 37.502L43.7028 38.29L42.4796 37.7505C42.3876 37.7106 42.2842 37.7154 42.197 37.7628C41.8746 37.9439 41.536 38.0823 41.1861 38.181C41.0894 38.2085 41.0126 38.2777 40.9756 38.3716L40.4929 39.6147H39.3778L38.8951 38.3716C38.8581 38.2777 38.7813 38.2085 38.6846 38.181C38.3356 38.0824 37.9961 37.943 37.6737 37.7628C37.5874 37.7135 37.4803 37.7087 37.3911 37.7505L36.1698 38.29L35.3818 37.502L35.9213 36.2807C35.9612 36.1887 35.9564 36.0853 35.909 35.9962C35.7279 35.6738 35.5866 35.3352 35.4908 34.9882C35.4633 34.8915 35.3922 34.8128 35.3002 34.7777L34.0542 34.295V33.1827L35.3002 32.7019C35.3941 32.6649 35.4633 32.5881 35.4908 32.4914C35.5894 32.1424 35.7288 31.803 35.909 31.4834C35.9583 31.3971 35.9631 31.29 35.9213 31.1989L35.3818 29.9776L36.1698 29.1924L37.393 29.732C37.485 29.7718 37.5912 29.7671 37.6775 29.7168C37.9942 29.5385 38.3337 29.3972 38.6855 29.2986C38.7822 29.2711 38.859 29.2019 38.896 29.108L39.3787 27.8648H40.4939L40.9765 29.108C41.0135 29.2019 41.0903 29.2711 41.1871 29.2986C41.5417 29.3972 41.8802 29.5385 42.195 29.7168C42.2813 29.7661 42.3885 29.7709 42.4795 29.732L43.7028 29.1924L44.4908 29.9776L43.9512 31.1989C43.9114 31.2909 43.9162 31.3943 43.9636 31.4834C44.1447 31.8058 44.286 32.1444 44.3818 32.4914C44.4093 32.5881 44.4804 32.6668 44.5724 32.7019L45.8184 33.1827L45.8184 34.295ZM40.252 31.7611V33.7553C40.252 33.9307 40.1107 34.072 39.9353 34.072C39.7599 34.072 39.6186 33.9307 39.6186 33.7553V31.7611C39.6186 31.5857 39.7599 31.4444 39.9353 31.4444C40.1107 31.4444 40.252 31.5857 40.252 31.7611ZM40.252 34.7757V34.8449C40.252 35.0203 40.1107 35.1616 39.9353 35.1616C39.7599 35.1616 39.6186 35.0203 39.6186 34.8449V34.7757C39.6186 34.6002 39.7599 34.4589 39.9353 34.4589C40.1107 34.4589 40.252 34.6002 40.252 34.7757ZM39.9353 25.625C35.4567 25.625 31.8125 29.2663 31.8125 33.7403C31.8125 35.6008 32.444 37.3171 33.5023 38.6874L31.8257 40.3393L31.3203 39.8367C31.1961 39.7125 30.996 39.7125 30.8718 39.8367L26.2366 44.4661C25.8431 44.8596 25.625 45.3849 25.625 45.9454C25.625 46.5048 25.8431 47.033 26.2366 47.4266C26.6453 47.8353 27.1801 48.0382 27.7178 48.0382C28.2526 48.0382 28.7903 47.8352 29.199 47.4266L33.8342 42.7972C33.8939 42.7375 33.9281 42.6559 33.9281 42.5715C33.9281 42.4871 33.893 42.4056 33.8342 42.3458L33.3316 41.8452L35.011 40.1904C36.3784 41.2335 38.0852 41.8546 39.9353 41.8546C44.4168 41.8546 48.06 38.2133 48.06 33.7393C48.06 29.2663 44.4168 25.6279 39.9382 25.6279L39.9353 25.625ZM28.7516 46.9751C28.1816 47.545 27.2552 47.545 26.6881 46.9751C26.4132 46.7001 26.2624 46.3331 26.2624 45.9443C26.2624 45.5527 26.4132 45.1885 26.6881 44.9164L31.0976 40.5116L33.161 42.5722L28.7516 46.977V46.9751ZM32.8833 41.3966L32.2764 40.7897L33.9112 39.1795C34.1046 39.3929 34.3076 39.593 34.5209 39.7864L32.8833 41.3994V41.3966ZM39.9355 41.2211C35.8058 41.2211 32.447 37.8643 32.447 33.7431C32.447 29.6211 35.8087 26.2623 39.9382 26.2623C44.068 26.2623 47.4267 29.6191 47.4267 33.7404C47.4267 37.8624 44.068 41.2185 39.9382 41.2185L39.9355 41.2211Z" fill="#EC7200" stroke="#EC7200" stroke-width="0.3"/>
</g>
<defs>
<filter id="filter0_d_1876_492" x="0" y="0" width="74" height="74" filterUnits="userSpaceOnUse" color-interpolation-filters="sRGB">
<feFlood flood-opacity="0" result="BackgroundImageFix"/>
<feColorMatrix in="SourceAlpha" type="matrix" values="0 0 0 0 0 0 0 0 0 0 0 0 0 0 0 0 0 0 127 0" result="hardAlpha"/>
<feOffset/>
<feGaussianBlur stdDeviation="6"/>
<feComposite in2="hardAlpha" operator="out"/>
<feColorMatrix type="matrix" values="0 0 0 0 0.92549 0 0 0 0 0.447059 0 0 0 0 0 0 0 0 1 0"/>
<feBlend mode="normal" in2="BackgroundImageFix" result="effect1_dropShadow_1876_492"/>
<feBlend mode="normal" in="SourceGraphic" in2="effect1_dropShadow_1876_492" result="shape"/>
</filter>
</defs>
</svg>
