<svg width="74" height="74" viewBox="0 0 74 74" fill="none" xmlns="http://www.w3.org/2000/svg">
<g filter="url(#filter0_d_1876_479)">
<rect x="12" y="12" width="50" height="50" rx="25" fill="#1A1628"/>
<rect x="12.5" y="12.5" width="49" height="49" rx="24.5" stroke="#EC7200"/>
<path d="M30.7096 45.2469L30.7081 40.8426H28.8917V45.2386C28.8917 45.4459 28.7225 45.6152 28.5151 45.6152C28.3078 45.6152 28.1386 45.4459 28.1386 45.2386V40.466C28.1386 40.2587 28.3078 40.0895 28.5151 40.0895H31.0833C31.1834 40.0895 31.2793 40.129 31.3498 40.1995C31.4204 40.27 31.4599 40.3659 31.4599 40.466V45.2386C31.4599 45.4459 31.292 45.6152 31.0833 45.6152C30.876 45.6152 30.7081 45.4459 30.7081 45.2386L30.7096 45.2469ZM35.4298 46.4654L35.4269 38.8793H33.6076V46.4567C33.6076 46.6641 33.4384 46.8333 33.2311 46.8333C33.0237 46.8333 32.8545 46.6641 32.8545 46.4567V38.5027C32.8545 38.2954 33.0237 38.1262 33.2311 38.1262H35.8035C35.9036 38.1262 35.9995 38.1656 36.07 38.2362C36.1405 38.3067 36.18 38.4026 36.18 38.5027V46.4567C36.18 46.664 36.0108 46.8333 35.8035 46.8333C35.5961 46.8333 35.4269 46.6641 35.4269 46.4567L35.4298 46.4654ZM40.1456 45.2469L40.1428 40.1162H38.3264V45.2386C38.3264 45.4459 38.1585 45.6152 37.9512 45.6152C37.7425 45.6152 37.5746 45.4459 37.5746 45.2386V39.74C37.5746 39.5327 37.7425 39.3648 37.9512 39.3648H40.5194C40.6195 39.3648 40.7154 39.4043 40.7859 39.4748C40.8564 39.5454 40.8959 39.6413 40.8959 39.74V45.2386C40.8959 45.4459 40.7267 45.6152 40.5194 45.6152C40.312 45.6152 40.1428 45.4459 40.1428 45.2386L40.1456 45.2469ZM44.8702 42.8536V36.3748H43.0424V42.8536C43.0424 43.0623 42.8746 43.2302 42.6673 43.2302C42.4585 43.2302 42.2907 43.0624 42.2907 42.8536V35.9982C42.2907 35.7909 42.4585 35.6217 42.6673 35.6217H45.2467C45.3468 35.6217 45.4427 35.6612 45.5133 35.7317C45.5838 35.8022 45.6233 35.8981 45.6233 35.9982V42.8536C45.6233 43.0623 45.454 43.2302 45.2467 43.2302C45.0394 43.2302 44.8702 43.0624 44.8702 42.8536ZM27.7364 37.8753C27.6659 37.8048 27.625 37.7074 27.625 37.6073C27.625 37.5072 27.6659 37.4113 27.7364 37.3408L33.8629 31.2187C34.3833 30.7025 35.2224 30.7025 35.7428 31.2187L37.9274 33.4074L42.7349 28.6125L41.6363 27.5139C41.5305 27.4053 41.4995 27.2445 41.5573 27.1063C41.6165 26.9667 41.7519 26.875 41.9028 26.875H45.9984C46.0986 26.875 46.1945 26.9145 46.265 26.985C46.3355 27.0555 46.375 27.1514 46.375 27.2501V31.3342C46.3736 31.4865 46.2819 31.6233 46.1423 31.6811C46.0013 31.739 45.8391 31.7065 45.7319 31.5979L44.6375 30.5036L38.8876 36.2462C38.3658 36.761 37.5281 36.761 37.0063 36.2462L34.8175 34.0574L30.88 37.9794C30.7348 38.1275 30.4964 38.1275 30.3483 37.9822C30.2003 37.8355 30.2003 37.5972 30.3469 37.4491L34.5397 33.2564C34.6102 33.1858 34.7061 33.1464 34.8062 33.1478C34.9063 33.1464 35.0022 33.1858 35.0742 33.2564L37.5267 35.7089H37.5253C37.6353 35.8189 37.7848 35.8809 37.9399 35.8809C38.095 35.8809 38.2431 35.8189 38.3531 35.7089L44.3709 29.6911C44.5176 29.5459 44.7545 29.5459 44.9012 29.6911L45.6233 30.4245V27.6264H42.8097L43.5318 28.3485C43.6023 28.419 43.6418 28.5149 43.6404 28.615C43.6418 28.7152 43.6023 28.8111 43.5318 28.883L38.2065 34.204C38.0598 34.3492 37.8229 34.3492 37.6762 34.204L35.2208 31.7331C34.9909 31.506 34.6214 31.506 34.393 31.7331L28.2708 37.8751C28.2003 37.9456 28.103 37.9865 28.0029 37.9865C27.9028 37.9865 27.8069 37.9458 27.7364 37.8753Z" fill="#EC7200"/>
</g>
<defs>
<filter id="filter0_d_1876_479" x="0" y="0" width="74" height="74" filterUnits="userSpaceOnUse" color-interpolation-filters="sRGB">
<feFlood flood-opacity="0" result="BackgroundImageFix"/>
<feColorMatrix in="SourceAlpha" type="matrix" values="0 0 0 0 0 0 0 0 0 0 0 0 0 0 0 0 0 0 127 0" result="hardAlpha"/>
<feOffset/>
<feGaussianBlur stdDeviation="6"/>
<feComposite in2="hardAlpha" operator="out"/>
<feColorMatrix type="matrix" values="0 0 0 0 0.92549 0 0 0 0 0.447059 0 0 0 0 0 0 0 0 1 0"/>
<feBlend mode="normal" in2="BackgroundImageFix" result="effect1_dropShadow_1876_479"/>
<feBlend mode="normal" in="SourceGraphic" in2="effect1_dropShadow_1876_479" result="shape"/>
</filter>
</defs>
</svg>
