<svg width="74" height="74" viewBox="0 0 74 74" fill="none" xmlns="http://www.w3.org/2000/svg">
<g filter="url(#filter0_d_1876_505)">
<rect x="12" y="12" width="50" height="50" rx="25" fill="#1A1628"/>
<rect x="12.5" y="12.5" width="49" height="49" rx="24.5" stroke="#EC7200"/>
<path d="M45.1343 26.8758C43.0854 26.8777 35.6296 26.8682 35.4692 26.8863C35.2909 26.8511 35.454 26.7605 32.7329 29.4587C30.9623 31.255 30.9318 31.1463 30.9385 31.3389C30.8841 31.5257 30.927 30.9794 30.9118 38.0855H29.1508C28.5158 38.0855 28 38.6013 28 39.2363L28.001 45.832C28.001 46.6406 28.5864 47.2975 29.3005 47.451C29.659 47.5368 28.8791 47.4805 43.8499 47.4958C45.1446 47.4958 46.1982 46.4422 46.1982 45.1475V27.9398C46.1982 27.3535 45.7207 26.8758 45.1343 26.8758ZM35.253 27.5566C35.2682 27.7654 35.4952 30.8966 35.4808 30.7011C35.5085 31.0787 35.1948 31.3895 34.8239 31.3609L31.6299 31.1521C36.5945 26.2246 34.882 27.9244 35.253 27.5566ZM28.4217 45.8321V39.2363C28.4217 38.834 28.7487 38.506 29.152 38.506H30.913C30.9092 46.3117 30.9254 45.8655 30.8958 46.018C30.7929 46.7179 30.0988 47.2079 29.3942 47.0401C28.8583 46.9257 28.4217 46.4337 28.4217 45.8321ZM45.778 45.1475C45.778 46.2106 44.9132 47.0754 43.8501 47.0754H30.7708C31.0912 46.7912 31.3334 46.3231 31.3334 45.8321V31.5553C33.8647 31.7203 34.8201 31.7851 34.8706 31.7851C35.4684 31.7851 35.9441 31.2731 35.9003 30.6715L35.6553 27.2973H45.1344C45.489 27.2973 45.7779 27.5862 45.7779 27.94L45.778 45.1475Z" fill="#EC7200" stroke="#EC7200" stroke-width="0.3"/>
<path d="M33.7439 40.1027C32.8944 40.957 32.2022 42.3843 32.0964 43.8935C32.0706 44.2272 32.3471 44.498 32.6723 44.498H33.9689C34.2664 44.498 34.52 44.2739 34.5439 43.9879C34.7946 41.1456 38.0364 39.6289 40.3664 41.2334L38.7236 42.614C37.8789 42.2813 36.9951 42.9163 36.9951 43.7944C36.9951 44.4913 37.5652 45.0596 38.265 45.0596C39.1393 45.0596 39.7715 44.1805 39.4406 43.3329L40.8603 41.6396C40.907 41.6863 40.9766 41.754 40.9299 41.7073C41.4896 42.2689 41.8986 43.0831 41.9787 43.9869C42.0035 44.273 42.2561 44.497 42.5536 44.497H43.8503C44.1783 44.497 44.4509 44.2234 44.4262 43.8935C44.3375 42.6207 43.8713 41.4271 43.0751 40.4393C40.5447 37.3387 36.0598 37.5037 33.7439 40.1027ZM34.1253 43.9508C34.1196 44.0214 34.0509 44.0767 33.9689 44.0767C32.6465 44.0586 32.638 44.1167 32.5521 44.0243C32.534 44.0042 32.5121 43.9709 32.5159 43.9241C32.6112 42.5493 33.1986 41.1992 34.295 40.1429C34.336 40.1848 35.4811 41.3585 35.4172 41.2927C34.6459 41.9925 34.2083 43.0116 34.1253 43.9508ZM35.7385 41.019L34.6106 39.8624C36.733 38.1129 39.8029 38.1176 41.914 39.8624L41.5278 40.2581L40.7003 40.9541C39.2053 39.871 37.1906 39.8977 35.7385 41.019ZM38.5703 43.7924C38.5703 43.9602 38.4321 44.0994 38.2633 44.0994C38.0908 44.0994 37.9563 43.9612 37.9563 43.7924C37.9563 43.6199 38.0908 43.4854 38.2633 43.4854C38.4321 43.4864 38.5703 43.6208 38.5703 43.7924ZM38.2652 44.6381C37.7885 44.6381 37.4157 44.2672 37.4157 43.7943C37.4157 43.3224 37.8085 42.9153 38.3234 42.9506L37.881 43.3224C37.6083 43.5493 37.5912 43.9612 37.8429 44.2129C38.0908 44.4646 38.5065 44.4436 38.7334 44.1747L39.1024 43.7343C39.1395 44.2482 38.7343 44.6381 38.2652 44.6381ZM44.0067 43.9249C44.0134 44.0079 43.9371 44.0756 43.8504 44.0756H42.5537C42.4727 44.0756 42.404 44.0203 42.3973 43.9488C42.3115 42.9763 41.8987 42.0638 41.1312 41.3144L41.4287 40.9598L42.2267 40.1417C43.2936 41.1581 43.9057 42.491 44.0049 43.923C44.0068 43.9239 44.0067 43.9249 44.0067 43.9249Z" fill="#EC7200" stroke="#EC7200" stroke-width="0.3"/>
<path d="M44.2519 29.179H37.0515C36.9352 29.179 36.8408 29.2733 36.8408 29.3897C36.8408 29.506 36.9352 29.6004 37.0515 29.6004H44.2519C44.3682 29.6004 44.4626 29.506 44.4626 29.3897C44.4626 29.2733 44.3682 29.179 44.2519 29.179Z" fill="#EC7200" stroke="#EC7200" stroke-width="0.3"/>
<path d="M44.2509 30.973H37.0506C36.9342 30.973 36.8398 31.0674 36.8398 31.1837C36.8398 31.3001 36.9342 31.3944 37.0506 31.3944H44.2509C44.3672 31.3944 44.4616 31.3001 44.4616 31.1837C44.4616 31.0674 44.3672 30.973 44.2509 30.973Z" fill="#EC7200" stroke="#EC7200" stroke-width="0.3"/>
<path d="M44.2509 32.766H37.0506C36.9342 32.766 36.8398 32.8604 36.8398 32.9767C36.8398 33.093 36.9342 33.1874 37.0506 33.1874H44.2509C44.3672 33.1874 44.4616 33.093 44.4616 32.9767C44.4616 32.8594 44.3672 32.766 44.2509 32.766Z" fill="#EC7200" stroke="#EC7200" stroke-width="0.3"/>
<path d="M44.2519 34.559H33.0603C32.944 34.559 32.8496 34.6534 32.8496 34.7697C32.8496 34.886 32.944 34.9804 33.0603 34.9804H44.2519C44.3682 34.9804 44.4626 34.886 44.4626 34.7697C44.4626 34.6534 44.3682 34.559 44.2519 34.559Z" fill="#EC7200" stroke="#EC7200" stroke-width="0.3"/>
<path d="M44.2519 36.3525H33.0603C32.944 36.3525 32.8496 36.4469 32.8496 36.5632C32.8496 36.6796 32.944 36.774 33.0603 36.774H44.2519C44.3682 36.774 44.4626 36.6796 44.4626 36.5632C44.4626 36.446 44.3682 36.3525 44.2519 36.3525Z" fill="#EC7200" stroke="#EC7200" stroke-width="0.3"/>
</g>
<defs>
<filter id="filter0_d_1876_505" x="0" y="0" width="74" height="74" filterUnits="userSpaceOnUse" color-interpolation-filters="sRGB">
<feFlood flood-opacity="0" result="BackgroundImageFix"/>
<feColorMatrix in="SourceAlpha" type="matrix" values="0 0 0 0 0 0 0 0 0 0 0 0 0 0 0 0 0 0 127 0" result="hardAlpha"/>
<feOffset/>
<feGaussianBlur stdDeviation="6"/>
<feComposite in2="hardAlpha" operator="out"/>
<feColorMatrix type="matrix" values="0 0 0 0 0.92549 0 0 0 0 0.447059 0 0 0 0 0 0 0 0 1 0"/>
<feBlend mode="normal" in2="BackgroundImageFix" result="effect1_dropShadow_1876_505"/>
<feBlend mode="normal" in="SourceGraphic" in2="effect1_dropShadow_1876_505" result="shape"/>
</filter>
</defs>
</svg>
