<svg width="74" height="74" viewBox="0 0 74 74" fill="none" xmlns="http://www.w3.org/2000/svg">
<g filter="url(#filter0_d_1876_443)">
<g clip-path="url(#clip0_1876_443)">
<rect x="12" y="12" width="50" height="50" rx="25" fill="#1A1628"/>
<path d="M43.9891 29.3771C43.9723 29.3436 43.9556 29.3268 43.9388 29.2933L39.6958 25.0503C39.6791 25.0335 39.6623 25.0168 39.6455 25.0168H39.6288C39.612 25 39.5952 25 39.5617 25H39.5114H28.2578C27.5702 25 27 25.5534 27 26.2578V47.7415C27 48.4291 27.5534 48.9993 28.2578 48.9993H42.7481C43.4357 48.9993 44.0059 48.4459 44.0059 47.7415V45.4941C44.0059 45.36 43.8885 45.2426 43.7543 45.2426C43.6201 45.2426 43.5028 45.36 43.5028 45.4941V47.7415C43.5028 48.1607 43.1673 48.4962 42.7481 48.4962H28.2578C27.8386 48.4962 27.5031 48.1607 27.5031 47.7415V26.224C27.5031 25.8047 27.8386 25.4693 28.2578 25.4693H39.2597V28.4715C39.2597 29.1591 39.8131 29.7293 40.5175 29.7293H41.0206C41.1548 29.7293 41.2722 29.6119 41.2722 29.4777C41.2722 29.3436 41.1548 29.2262 41.0206 29.2262H40.5175C40.0982 29.2262 39.7628 28.8908 39.7628 28.4715V25.8384L43.5029 29.5785V33.4694C43.5029 33.6036 43.6203 33.721 43.7545 33.721C43.8886 33.721 44.006 33.6036 44.006 33.4694V29.4779C44.006 29.4443 44.0059 29.4107 43.9891 29.3771Z" fill="#EC7200" stroke="#EC7200"/>
<path d="M30.5231 30.9707H37.0136C37.1478 30.9707 37.2652 30.8533 37.2652 30.7191C37.2652 30.5849 37.1478 30.4675 37.0136 30.4675H30.5231C30.3889 30.4675 30.2715 30.5849 30.2715 30.7191C30.2715 30.8533 30.3721 30.9707 30.5231 30.9707Z" fill="#EC7200" stroke="#EC7200"/>
<path d="M30.5231 34.4746H39.0261C39.1603 34.4746 39.2777 34.3572 39.2777 34.223C39.2777 34.0888 39.1603 33.9714 39.0261 33.9714H30.5231C30.3889 33.9714 30.2715 34.0888 30.2715 34.223C30.2715 34.3572 30.3721 34.4746 30.5231 34.4746Z" fill="#EC7200" stroke="#EC7200"/>
<path d="M36.7618 37.7286C36.7618 37.5944 36.6444 37.4771 36.5102 37.4771H30.5231C30.3889 37.4771 30.2715 37.5944 30.2715 37.7286C30.2715 37.8628 30.3889 37.9802 30.5231 37.9802H36.5271C36.6445 37.9802 36.7618 37.8628 36.7618 37.7286Z" fill="#EC7200" stroke="#EC7200"/>
<path d="M30.5231 41.4694H34.5146C34.6487 41.4694 34.7661 41.352 34.7661 41.2179C34.7661 41.0837 34.6487 40.9663 34.5146 40.9663H30.5231C30.3889 40.9663 30.2715 41.0837 30.2715 41.2179C30.2715 41.352 30.3721 41.4694 30.5231 41.4694Z" fill="#EC7200" stroke="#EC7200"/>
<path d="M30.5231 44.9736H35.0177C35.1519 44.9736 35.2693 44.8562 35.2693 44.722C35.2693 44.5879 35.1519 44.4705 35.0177 44.4705H30.5231C30.3889 44.4705 30.2715 44.5879 30.2715 44.722C30.2715 44.8562 30.3721 44.9736 30.5231 44.9736Z" fill="#EC7200" stroke="#EC7200"/>
<path d="M43.0169 35.0784C42.8157 34.7765 42.4802 34.592 42.1113 34.592C41.7423 34.592 41.4069 34.7765 41.2056 35.0784L36.4931 42.3235C36.2918 42.6254 36.2751 43.0111 36.4595 43.3298C36.644 43.6652 37.013 43.8832 37.3987 43.8832H46.8241C47.2266 43.8832 47.5788 43.6652 47.7633 43.3298C47.931 43.0111 47.931 42.6254 47.7297 42.3235L43.0169 35.0784ZM47.3269 43.095C47.2263 43.2795 47.0418 43.3801 46.8238 43.3801H37.3985C37.1804 43.3801 36.996 43.2795 36.8953 43.095C36.8115 42.9273 36.8115 42.7596 36.9121 42.6086L41.6246 35.3635C41.7253 35.2126 41.9098 35.1119 42.111 35.1119C42.3123 35.1119 42.4967 35.2126 42.5974 35.3635L47.3099 42.6086C47.3938 42.7428 47.4108 42.9273 47.3269 43.095Z" fill="#EC7200" stroke="#EC7200"/>
<path d="M42.109 37.5271C41.9748 37.5271 41.8574 37.6445 41.8574 37.7787V40.8645C41.8574 40.9987 41.9748 41.1161 42.109 41.1161C42.2432 41.1161 42.3606 40.9987 42.3606 40.8645V37.7787C42.3606 37.6445 42.2432 37.5271 42.109 37.5271Z" fill="#EC7200" stroke="#EC7200"/>
<path d="M42.109 41.9045C41.9748 41.9045 41.8574 42.0219 41.8574 42.1561V42.3238C41.8574 42.458 41.9748 42.5754 42.109 42.5754C42.2432 42.5754 42.3606 42.458 42.3606 42.3238V42.1561C42.3606 42.0219 42.2432 41.9045 42.109 41.9045Z" fill="#EC7200" stroke="#EC7200"/>
</g>
<rect x="12.5" y="12.5" width="49" height="49" rx="24.5" stroke="#EC7200"/>
</g>
<defs>
<filter id="filter0_d_1876_443" x="0" y="0" width="74" height="74" filterUnits="userSpaceOnUse" color-interpolation-filters="sRGB">
<feFlood flood-opacity="0" result="BackgroundImageFix"/>
<feColorMatrix in="SourceAlpha" type="matrix" values="0 0 0 0 0 0 0 0 0 0 0 0 0 0 0 0 0 0 127 0" result="hardAlpha"/>
<feOffset/>
<feGaussianBlur stdDeviation="6"/>
<feComposite in2="hardAlpha" operator="out"/>
<feColorMatrix type="matrix" values="0 0 0 0 0.92549 0 0 0 0 0.447059 0 0 0 0 0 0 0 0 1 0"/>
<feBlend mode="normal" in2="BackgroundImageFix" result="effect1_dropShadow_1876_443"/>
<feBlend mode="normal" in="SourceGraphic" in2="effect1_dropShadow_1876_443" result="shape"/>
</filter>
<clipPath id="clip0_1876_443">
<rect x="12" y="12" width="50" height="50" rx="25" fill="white"/>
</clipPath>
</defs>
</svg>
