<svg width="74" height="74" viewBox="0 0 74 74" fill="none" xmlns="http://www.w3.org/2000/svg">
<g filter="url(#filter0_d_1876_466)">
<rect x="12" y="12" width="50" height="50" rx="25" fill="#1A1628"/>
<rect x="12.5" y="12.5" width="49" height="49" rx="24.5" stroke="#EC7200"/>
<path d="M40.805 42.5387C40.6364 42.5387 40.5034 42.6708 40.5034 42.8403V46.1533H32.0693V42.2378C32.0693 42.0692 31.9372 41.9362 31.7677 41.9362L27.8531 41.9354V27.4782H40.5033V30.7913C40.5033 30.9599 40.6355 31.0929 40.8049 31.0929C40.9735 31.0929 41.1065 30.9607 41.1065 30.7913L41.1056 27.1766C41.1056 27.008 40.9735 26.875 40.804 26.875L27.5516 26.8758C27.383 26.8758 27.25 27.008 27.25 27.1774V42.2377C27.25 44.7316 29.2738 46.7554 31.7678 46.7554H40.8041C40.9727 46.7554 41.1057 46.6233 41.1057 46.4539V42.8391C41.1057 42.6706 40.9735 42.5376 40.8041 42.5376L40.805 42.5387ZM31.467 46.1348H31.4365C31.2256 46.117 31.0205 46.0806 30.8223 46.0323C30.7859 46.0263 30.7562 46.0145 30.7198 46.0085C30.5267 45.9543 30.3344 45.8882 30.1539 45.8035C30.1234 45.7917 30.0938 45.773 30.0633 45.7612C29.8828 45.6705 29.7075 45.5748 29.5389 45.4596C29.5211 45.4477 29.5025 45.4291 29.4788 45.4172C29.3102 45.297 29.1475 45.158 28.9967 45.014C28.8459 44.8632 28.7138 44.7006 28.5935 44.532C28.5816 44.5142 28.563 44.4956 28.5511 44.4718C28.4368 44.3092 28.3343 44.1347 28.2496 43.9475C28.2377 43.917 28.2191 43.8873 28.2072 43.8568C28.1225 43.6764 28.0564 43.4892 28.0022 43.2909C27.9903 43.2545 27.9844 43.2248 27.9785 43.1884C27.9302 42.9893 27.8938 42.7852 27.876 42.5743V42.5438H31.472V46.1398L31.467 46.1348ZM35.0817 30.1893C35.0817 30.3578 34.9496 30.4908 34.7801 30.4908L29.9616 30.49C29.793 30.49 29.66 30.3578 29.66 30.1884C29.66 30.0198 29.7922 29.8868 29.9616 29.8868H34.781C34.9496 29.8868 35.0826 30.019 35.0826 30.1884L35.0817 30.1893ZM35.0817 32.5984C35.0817 32.767 34.9496 32.9 34.7801 32.9H29.9616C29.793 32.9 29.66 32.7678 29.66 32.5984C29.66 32.4298 29.7922 32.2968 29.9616 32.2968H34.781C34.9496 32.2968 35.0817 32.429 35.0817 32.5984ZM35.0817 35.0085C35.0817 35.177 34.9496 35.31 34.7801 35.31L29.9616 35.3092C29.793 35.3092 29.66 35.177 29.66 35.0076C29.66 34.839 29.7922 34.706 29.9616 34.706H34.781C34.9496 34.706 35.0826 34.8382 35.0826 35.0076L35.0817 35.0085ZM47.0399 42.6285L44.197 39.7856C44.8959 38.9901 45.3178 37.9541 45.3178 36.8156C45.3178 34.3216 43.294 32.2978 40.8 32.2978C38.3061 32.2978 36.2823 34.3216 36.2823 36.8156C36.2823 39.3096 38.3061 41.3334 40.8 41.3334C41.9386 41.3334 42.9745 40.9055 43.77 40.2126L46.6129 43.0555C46.6731 43.1156 46.7518 43.1461 46.8238 43.1461C46.8959 43.1461 46.9806 43.1156 47.0348 43.0555C47.1551 42.9352 47.1551 42.748 47.0348 42.6277L47.0399 42.6285ZM36.8886 36.8154C36.8886 34.6586 38.6473 32.8999 40.8042 32.8999C42.9609 32.8999 44.7197 34.6585 44.7197 36.8154C44.7197 38.9722 42.961 40.7309 40.8042 40.7309C38.6474 40.7309 36.8886 38.9722 36.8886 36.8154Z" fill="#EC7200" stroke="#EC7200" stroke-width="0.5"/>
</g>
<defs>
<filter id="filter0_d_1876_466" x="0" y="0" width="74" height="74" filterUnits="userSpaceOnUse" color-interpolation-filters="sRGB">
<feFlood flood-opacity="0" result="BackgroundImageFix"/>
<feColorMatrix in="SourceAlpha" type="matrix" values="0 0 0 0 0 0 0 0 0 0 0 0 0 0 0 0 0 0 127 0" result="hardAlpha"/>
<feOffset/>
<feGaussianBlur stdDeviation="6"/>
<feComposite in2="hardAlpha" operator="out"/>
<feColorMatrix type="matrix" values="0 0 0 0 0.92549 0 0 0 0 0.447059 0 0 0 0 0 0 0 0 1 0"/>
<feBlend mode="normal" in2="BackgroundImageFix" result="effect1_dropShadow_1876_466"/>
<feBlend mode="normal" in="SourceGraphic" in2="effect1_dropShadow_1876_466" result="shape"/>
</filter>
</defs>
</svg>
